<svg xmlns="http://www.w3.org/2000/svg" viewBox="0 0 256 256"><defs><linearGradient id="g" x2="1" y2="1"><stop stop-color="#fbcfe8"/><stop offset="1" stop-color="#db2777"/></linearGradient><filter id="glow" x="-30%" y="-30%" width="160%" height="160%"><feGaussianBlur stdDeviation="3"/></filter></defs><circle cx="128" cy="128" r="116" fill="none" stroke="#fbcfe8" stroke-width="9" opacity=".65" filter="url(#glow)"/><circle cx="128" cy="128" r="116" fill="none" stroke="url(#g)" stroke-width="6"/><circle cx="128" cy="128" r="108" fill="none" stroke="#fbcfe8" stroke-width="1" opacity=".65"/><path d="M 244.00 123.00 l 5 5 -5 5 -5 -5Z" fill="#fbcfe8"/><path d="M 210.02 205.02 l 5 5 -5 5 -5 -5Z" fill="#fbcfe8"/><path d="M 128.00 239.00 l 5 5 -5 5 -5 -5Z" fill="#fbcfe8"/><path d="M 45.98 205.02 l 5 5 -5 5 -5 -5Z" fill="#fbcfe8"/><path d="M 12.00 123.00 l 5 5 -5 5 -5 -5Z" fill="#fbcfe8"/><path d="M 45.98 40.98 l 5 5 -5 5 -5 -5Z" fill="#fbcfe8"/><path d="M 128.00 7.00 l 5 5 -5 5 -5 -5Z" fill="#fbcfe8"/><path d="M 210.02 40.98 l 5 5 -5 5 -5 -5Z" fill="#fbcfe8"/></svg>